<svg version="1.1" xmlns="http://www.w3.org/2000/svg" xmlns:xlink="http://www.w3.org/1999/xlink" width="261.72907" height="235.44996" viewBox="0,0,261.72907,235.44996"><g transform="translate(-117.3145,-69.63191)"><g data-paper-data="{&quot;isPaintingLayer&quot;:true}" fill="#00ff90" fill-rule="nonzero" stroke="none" stroke-width="1" stroke-linecap="butt" stroke-linejoin="miter" stroke-miterlimit="10" stroke-dasharray="" stroke-dashoffset="0" style="mix-blend-mode: normal"><path d="M151.43489,71.08801c10.10023,-0.88 60.08189,-1.4528 96.74307,-1.456c36.66225,-0.00533 61.26162,0.21013 96.74521,1.456c11.41435,6.77654 33.90706,32.61764 34.12039,39.39524v11.21708c0,14.22082 -13.29061,26.71576 -25.35776,26.71576c-14.48847,0 -26.56309,-12.00855 -26.56309,-26.26136c0,14.25282 -11.65862,26.26136 -26.14923,26.26136c-14.48954,0 -25.77483,-12.00855 -25.77483,-26.26136c0,14.25282 -12.39675,26.26136 -26.88842,26.26136h-0.2624c-14.49061,0 -26.88736,-12.00855 -26.88736,-26.26136c0,14.25282 -11.28422,26.26136 -25.77589,26.26136c-14.49061,0 -26.14923,-12.00855 -26.14923,-26.26136c-0.00107,14.25282 -12.07355,26.26136 -26.56309,26.26136c-12.06715,0 -25.35776,-12.49708 -25.35776,-26.71576v-11.21708c0.21333,-6.77654 22.70604,-32.61657 34.12253,-39.39524zM220.98021,141.71635c1.37067,2.41255 3.07093,4.62225 5.05171,6.56534c5.68608,5.56174 13.32605,8.6725 21.27991,8.66454c0.2912,0 0.5792,-0.0128 0.8672,-0.02133h0.00747c0.288,0.00853 0.576,0.02133 0.864,0.02133c7.95402,0.00767 15.59401,-3.10348 21.27991,-8.66561c1.9808,-1.94307 3.68107,-4.15278 5.05171,-6.56534c1.38549,2.41522 3.10163,4.62503 5.09865,6.56534c5.46984,5.34721 12.96848,8.66454 21.23298,8.66454c7.95328,0.00769 15.59241,-3.10396 21.27671,-8.66668c1.98186,-1.94027 3.48692,-4.01707 4.86718,-6.43414l0.0064,0.00427c1.37919,2.4224 3.29919,4.49601 5.28531,6.43947c5.6867,5.55908 13.32533,8.66846 21.27778,8.66134c0.99733,0 2.03306,-0.2752 2.87145,-0.5632c1.1648,12.13015 1.65653,23.72163 1.82933,32.17604l0.0032,0.048c0.02133,4.29334 0.04053,7.82294 0.064,12.72535c-0.224,25.4507 2.52052,82.48969 -11.22129,96.50571c-21.29485,4.96534 -60.47975,7.22667 -99.79053,7.24054h-0.0064c-39.31184,-0.01387 -78.49675,-2.2752 -99.79159,-7.24054c-13.74181,-14.01495 -10.99729,-71.05395 -11.22129,-96.50464c0.02133,-4.90347 0.04267,-8.43308 0.064,-12.72535l0.00213,-0.048c0.17387,-8.45228 0.6656,-20.04482 1.83039,-32.17497c0.8384,0.288 1.87519,0.5632 2.87145,0.5632c7.95245,0.00711 15.59108,-3.10227 21.27778,-8.66134c1.98613,-1.94347 3.90612,-4.01814 5.28425,-6.43947l0.0064,-0.00427c1.37919,2.41707 2.88532,4.49281 4.86718,6.43414c5.68453,5.56317 13.32402,8.6752 21.27778,8.66774c8.26557,0 15.76314,-3.3152 21.23298,-8.66348c1.99702,-1.94031 3.71315,-4.15012 5.09865,-6.56534zM199.1275,169.97665c-4.08852,0 -20.44365,0 -31.83987,32.0075l-12.24422,43.90832c-9.0709,32.6667 2.90345,33.46457 17.84099,33.49337c22.15138,-0.82453 34.41799,-16.91202 34.41799,-32.99737c12.26128,2.0096 26.56629,3.01547 40.87237,3.01547h0.0064c14.30501,-0.00107 28.61002,-1.00587 40.87237,-3.01547c0,16.08535 12.26555,32.17284 34.41799,32.99737c14.93754,-0.0288 26.91296,-0.82773 17.84206,-33.49337l-12.24102,-43.90938c-11.39622,-32.0075 -27.75135,-32.0075 -31.83987,-32.0075l0.00213,0.01067h-0.01493c-8.65383,0.01707 -16.34127,-0.00107 -25.86656,10.39575c-7.49757,-0.78613 -15.33114,-1.1776 -23.17111,-1.16693h-0.0064c-7.83997,-0.01173 -15.67354,0.3808 -23.17004,1.16693c-9.52529,-10.39575 -17.21273,-10.37761 -25.86656,-10.39575h-0.016l0.00213,-0.01067zM248.17797,195.13188l0.0032,-0.00213v0.0064c0,0 23.31937,21.41869 27.50922,29.02937l-15.25754,-0.6112v13.30562c0,0.62293 -6.12371,0.36907 -12.25062,0.08533h-0.0064c-6.12904,0.28373 -12.25168,0.5376 -12.25168,-0.08533v-13.30562l-15.25754,0.6112c4.18878,-7.61068 27.48789,-29.00803 27.50922,-29.02937v-0.0064z"/></g></g></svg>