<svg version="1.1" xmlns="http://www.w3.org/2000/svg" xmlns:xlink="http://www.w3.org/1999/xlink" width="310" height="218.166" viewBox="0,0,310,218.166"><g transform="translate(-85,-70.917)"><g data-paper-data="{&quot;isPaintingLayer&quot;:true}" fill="#fa0000" fill-rule="nonzero" stroke="none" stroke-width="1" stroke-linecap="butt" stroke-linejoin="miter" stroke-miterlimit="10" stroke-dasharray="" stroke-dashoffset="0" style="mix-blend-mode: normal"><path d="M395,153.166v53.669c0,34.028 -5.367,53.683 -17.946,65.721c-12.266,11.739 -31.226,16.527 -65.442,16.527h-143.226c-70.49,0 -83.386,-27.697 -83.386,-82.248v-53.669c0,-28.158 0,-48.503 10.869,-62.311c11.148,-14.162 32.158,-19.938 72.517,-19.938h143.225c39.456,0 60.116,5.426 71.306,18.728c11.242,13.361 12.083,33.826 12.083,63.521zM289.39,178.533c-0.005,-3.727 -2.083,-7.143 -5.392,-8.861l-65.038,-33.772c-3.099,-1.61 -6.814,-1.486 -9.801,0.328c-2.986,1.814 -4.808,5.054 -4.808,8.546v67.764c0,3.498 1.827,6.741 4.819,8.554c1.589,0.962 3.383,1.446 5.181,1.446c1.588,0 3.178,-0.377 4.632,-1.137l65.038,-33.991c3.304,-1.726 5.373,-5.147 5.369,-8.877z"/></g></g></svg>